<?xml version="1.0" standalone="no"?>
<!DOCTYPE svg PUBLIC "-//W3C//DTD SVG 20010904//EN"
 "http://www.w3.org/TR/2001/REC-SVG-20010904/DTD/svg10.dtd">
<svg version="1.0" xmlns="http://www.w3.org/2000/svg"
 width="1310.000000pt" height="1310.000000pt" viewBox="0 0 1310.000000 1310.000000"
 preserveAspectRatio="xMidYMid meet">

<g transform="translate(0.000000,1310.000000) scale(0.100000,-0.100000)"
fill="#000000" stroke="none">
<path d="M2931 12588 c-332 -41 -651 -204 -893 -456 -198 -207 -325 -448 -390
-742 l-23 -105 0 -4685 0 -4685 22 -101 c71 -317 196 -549 417 -770 221 -221
453 -346 770 -417 l101 -22 3685 0 3685 0 101 22 c315 70 550 197 770 417 218
218 343 449 416 765 l23 96 2 3700 3 3700 -1647 1647 -1648 1648 -2660 -1
c-1563 -1 -2691 -5 -2734 -11z m4689 -2488 l0 -1500 1500 0 1500 0 0 -3277 c0
-3607 4 -3341 -61 -3463 -39 -74 -125 -160 -199 -199 -123 -65 172 -61 -3740
-61 -3912 0 -3617 -4 -3740 61 -74 39 -160 125 -199 199 -66 123 -61 -274 -61
4740 0 4028 2 4562 15 4619 42 177 187 323 361 365 50 12 406 14 2342 15
l2282 1 0 -1500z m1650 145 l645 -645 -648 0 -647 0 0 645 c0 355 1 645 3 645
1 0 292 -290 647 -645z"/>
<path d="M3620 7100 l0 -500 500 0 500 0 0 500 0 500 -500 0 -500 0 0 -500z"/>
<path d="M5620 7100 l0 -500 2000 0 2000 0 0 500 0 500 -2000 0 -2000 0 0
-500z"/>
<path d="M3620 5100 l0 -500 500 0 500 0 0 500 0 500 -500 0 -500 0 0 -500z"/>
<path d="M5620 5100 l0 -500 2000 0 2000 0 0 500 0 500 -2000 0 -2000 0 0
-500z"/>
<path d="M3620 3100 l0 -500 500 0 500 0 0 500 0 500 -500 0 -500 0 0 -500z"/>
<path d="M5620 3100 l0 -500 2000 0 2000 0 0 500 0 500 -2000 0 -2000 0 0
-500z"/>
<path d="M12937 6574 c-9 -10 2 -24 19 -24 8 0 14 7 14 15 0 15 -21 21 -33 9z"/>
</g>
</svg>
